<?xml version="1.0" encoding="utf-8"?>
<!-- Generator: Adobe Illustrator 22.0.0, SVG Export Plug-In . SVG Version: 6.00 Build 0)  -->
<svg version="1.1" id="图层_1" xmlns="http://www.w3.org/2000/svg" xmlns:xlink="http://www.w3.org/1999/xlink" x="0px" y="0px"
	 viewBox="0 0 1024 1024" style="enable-background:new 0 0 1024 1024;" xml:space="preserve">
<style type="text/css">
	.st0{fill:#3474F5;}
</style>
<path class="st0" d="M869.4,867.9c0-48.2-8-93.9-23.6-136c-15.4-41.6-38-78.4-66.9-109.5c-34.5-37.1-77.1-64.4-124.6-80.7
	c8.7-6.6,17.1-13.8,25-21.7c44.6-44.6,69.2-103.9,69.2-167s-24.6-122.4-69.2-167c-44.6-44.6-103.9-69.2-167-69.2
	s-122.4,24.6-167,69.2s-69.2,103.9-69.2,167s24.6,122.4,69.2,167c7.6,7.6,15.7,14.6,24.1,21c-6.6,2.2-13.2,4.6-19.6,7.2
	c-39.6,16.1-74.5,39.8-103.5,70.3c-29.2,30.7-51.8,67.6-67.2,109.6c-15.6,42.5-23.4,89.5-23.4,139.8v42.5h714L869.4,867.9z
	 M512.3,201.7c83.4,0,151.2,67.8,151.2,151.2s-67.8,151.2-151.2,151.2s-151.2-67.8-151.2-151.2S428.9,201.7,512.3,201.7z
	 M242.9,825.4C258.4,692.6,347.4,609,478.4,609h68.1c126.5,0,218.6,87,235.2,216.4H242.9z"/>
</svg>
