<?xml version="1.0" encoding="utf-8"?>
<!-- Generator: Adobe Illustrator 22.0.0, SVG Export Plug-In . SVG Version: 6.00 Build 0)  -->
<svg version="1.1" id="图层_1" xmlns="http://www.w3.org/2000/svg" xmlns:xlink="http://www.w3.org/1999/xlink" x="0px" y="0px"
	 viewBox="0 0 1024 1024" style="enable-background:new 0 0 1024 1024;" xml:space="preserve">
<style type="text/css">
	.st0{fill:#3474F5;}
</style>
<g>
	<polygon class="st0" points="727.2,247 727.2,96.2 645.7,96.2 645.7,247 494.9,247 494.9,328.5 645.7,328.5 645.7,479.3 
		727.2,479.3 727.2,328.5 878,328.5 878,247 	"/>
	<path class="st0" d="M734.5,745.9c0,4.8-3.9,8.7-8.7,8.7H270.9c-4.8,0-8.7-3.9-8.7-8.7V291.2c0-4.8,3.9-8.7,8.7-8.7h148.8V201
		H270.9c-49.8,0-90.3,40.6-90.3,90.3V746c0,49.8,40.6,90.3,90.3,90.3h454.7c49.8,0,90.3-40.6,90.3-90.3V547.7h-81.5v198.2H734.5z"/>
</g>
</svg>
