<?xml version="1.0" encoding="utf-8"?>
<!-- Generator: Adobe Illustrator 22.0.0, SVG Export Plug-In . SVG Version: 6.00 Build 0)  -->
<svg version="1.1" id="图层_1" xmlns="http://www.w3.org/2000/svg" xmlns:xlink="http://www.w3.org/1999/xlink" x="0px" y="0px"
	 viewBox="0 0 1024 1024" style="enable-background:new 0 0 1024 1024;" xml:space="preserve">
<style type="text/css">
	.st0{fill:#3474F5;}
</style>
<path class="st0" d="M867.3,196.2c-13.2-56.9-103.4-64.5-149.6-70.9c-66.4-9.2-133.8-12.1-200.7-12.1c-65.3,0-130.8,2.8-195.6,11.4
	c-47,6.2-141.2,13.4-154.8,71.6c0,0-4.5,576.4-1.4,609.7c5.1,55.1,67.7,68,113,76.7c61,11.7,123.8,15.7,185.8,17.4
	c68.1,1.9,136.5,0.5,204.3-5.7c54.4-5,123.2-8.1,170.2-38.8c38.5-25.2,30-70,30-109.6c0-64.2-1.2-549.6-1.2-549.6L867.3,196.2
	L867.3,196.2z M516.9,182c97.4,0,192.8,7.3,270.8,20.6c-178.3,30.2-363.4,30.2-541.7,0C324.2,189.1,419.5,182,516.9,182z
	 M516.9,818.5c-125.9,0-205-7.8-266.8-30.6v-97.5c86.2,21.5,178.3,24.2,266.7,24.2s180.5-2.7,266.7-24.2v97.5
	C772.1,792.1,709,818.5,516.9,818.5z M783.6,601.8c-81.5,30.1-181.2,29.9-266.7,29.9s-185.2,0.2-266.7-29.9c0-41.1,0-82.3,0-123.4
	c86.2,21.5,178.3,24.2,266.7,24.2s180.5-2.7,266.7-24.2C783.6,519.5,783.6,560.6,783.6,601.8z M783.6,389.7
	c-81.5,30.1-181.2,29.9-266.7,29.9s-185.2,0.2-266.7-29.9c0-37.1,0-74.3,0-111.4c86.2,21.5,178.3,24.2,266.7,24.2
	s180.5-2.7,266.7-24.2C783.6,315.4,783.6,352.6,783.6,389.7z"/>
</svg>
