<?xml version="1.0" encoding="utf-8"?>
<!-- Generator: Adobe Illustrator 22.0.0, SVG Export Plug-In . SVG Version: 6.00 Build 0)  -->
<svg version="1.1" id="图层_1" xmlns="http://www.w3.org/2000/svg" xmlns:xlink="http://www.w3.org/1999/xlink" x="0px" y="0px"
	 viewBox="0 0 1024 1024" style="enable-background:new 0 0 1024 1024;" xml:space="preserve">
<style type="text/css">
	.st0{fill:#3474F5;}
</style>
<g>
	<path class="st0" d="M755.1,927.7L512.3,800.1L269.4,927.7l-61.7-44.8l46.4-270.4L57.6,421l23.6-72.5L352.7,309L474.1,63h76.3
		l121.4,246l271.5,39.5l23.6,72.5L770.4,612.5l46.4,270.4L755.1,927.7z M178.7,420.2l150.8,147l12.2,37.6l-35.6,207.5l186.4-98H532
		l186.4,98l-35.6-207.5l12.2-37.6l150.8-147L637.4,390l-32-23.3l-93.2-188.8L419,366.7L387,390L178.7,420.2z"/>
</g>
</svg>
