<?xml version="1.0" encoding="utf-8"?>
<!-- Generator: Adobe Illustrator 22.0.0, SVG Export Plug-In . SVG Version: 6.00 Build 0)  -->
<svg version="1.1" id="图层_1" xmlns="http://www.w3.org/2000/svg" xmlns:xlink="http://www.w3.org/1999/xlink" x="0px" y="0px"
	 viewBox="0 0 1024 1024" style="enable-background:new 0 0 1024 1024;" xml:space="preserve">
<style type="text/css">
	.st0{fill:#3474F5;}
</style>
<g>
	<polygon class="st0" points="479.9,237.4 479.9,633.8 564.9,633.8 564.9,230.5 689.2,347.1 747.4,285.1 526.5,77.8 304,284.8 
		361.9,347.1 	"/>
	<path class="st0" d="M793.6,433.6H631.9v85h161.7c4.5,0,8.1,3.6,8.1,8.1v214.7c0,4.5-3.6,8.1-8.1,8.1H229.1c-4.5,0-8.1-3.6-8.1-8.1
		V526.6c0-4.5,3.6-8.1,8.1-8.1H413v-85H229.1c-51.3,0-93.1,41.8-93.1,93.1v214.8c0,51.3,41.8,93.1,93.1,93.1h564.5
		c51.3,0,93.1-41.8,93.1-93.1V526.7C886.7,475.4,844.9,433.6,793.6,433.6z"/>
</g>
</svg>
