<?xml version="1.0" encoding="utf-8"?>
<!-- Generator: Adobe Illustrator 22.0.0, SVG Export Plug-In . SVG Version: 6.00 Build 0)  -->
<svg version="1.1" id="图层_1" xmlns="http://www.w3.org/2000/svg" xmlns:xlink="http://www.w3.org/1999/xlink" x="0px" y="0px"
	 viewBox="0 0 1024 1024" style="enable-background:new 0 0 1024 1024;" xml:space="preserve">
<style type="text/css">
	.st0{fill:#3474F5;}
</style>
<path class="st0" d="M861.2,791.2L680.5,610.7c77.9-103.2,84.7-247.8,17.3-358c-66.6-109-195.2-168.5-321.4-149.1
	c-123.5,19-227,112.3-259.3,232.9C84.4,458.9,129,591.4,228.2,669.8c113.4,89.7,278.5,89.9,392.6,1.5l180.3,180.2L861.2,791.2z
	 M425.4,652.9c-97.7,0-187.4-63.2-220.4-155.2c-33-91.8-3.8-196.8,71.2-259c76.2-63.1,187.1-71.1,271.5-19.3
	c82.7,50.9,126.4,150.3,107.2,245.6C633.2,572.9,535.3,652.9,425.4,652.9z"/>
</svg>
