<?xml version="1.0" encoding="utf-8"?>
<!-- Generator: Adobe Illustrator 22.0.0, SVG Export Plug-In . SVG Version: 6.00 Build 0)  -->
<svg version="1.1" id="图层_1" xmlns="http://www.w3.org/2000/svg" xmlns:xlink="http://www.w3.org/1999/xlink" x="0px" y="0px"
	 viewBox="0 0 1024 1024" style="enable-background:new 0 0 1024 1024;" xml:space="preserve">
<style type="text/css">
	.st0{fill:#3474F5;}
</style>
<g>
	<path class="st0" d="M593.5,939.6c-20.3-29.6-40.2-58.2-80.5-58.2c-40,0-60.1,28.7-80.4,58.2c-54.4-14.1-103.9-33.5-153.4-60
		c9.5-37.2,19.5-74.8-11.5-105.9c-32.3-32.4-70.5-20.7-108.4-9.1C126.5,710,103.1,655.6,87,594c29.6-20.3,58.3-40,58.3-80.3
		c0-40.1-28.8-60.2-58.3-80.5c15.5-58.7,37.2-111.3,68-163.7c35.4,6.5,69.3,12.9,98-15.9c28.3-28.4,22.3-62.6,15.7-97.9
		c52.4-30.9,105-52.6,163.8-67.9c20.3,29.6,40.2,58.2,80.5,58.2c40.1,0,60.2-28.7,80.5-58.3c63.8,16.8,120.1,40.8,175.6,76.5
		c-3.9,34.2-6.6,67.4,22.2,92.8c25,22.1,52.2,18.9,82.3,16.7c29.5,51.1,50.2,102.6,65.1,159.7c-29.5,20.2-58.2,40.3-58.1,80.4
		c0.1,40.1,28.8,60.2,58.3,80.5c-15.5,58.7-37.2,111.3-68,163.7c-37.1-6.8-73.1-12.5-101.4,19.7c-25.1,28.7-18.8,60.4-12.1,94
		C705,902.4,652.3,924.2,593.5,939.6z M374.8,832.7c8.2,3.5,16.6,6.7,25.2,9.6c62.1-60.4,163.8-60.5,225.9-0.1
		c13.5-4.6,26.6-10.1,39.4-16.3c1.2-86.5,73.3-158.6,159.8-159.8c6.2-12.7,11.7-25.9,16.4-39.5c-60.2-62-60.5-163.8-0.2-225.8
		c-4.7-13.8-10.3-27.3-16.8-40.4c-77.5-8.3-139.3-73.2-143.8-151c-17.5-9.6-35.9-17.8-55-24.3c-62.1,60.3-163.7,60.3-225.8,0
		c-13.5,4.6-26.7,10.1-39.5,16.4c-1.1,86.5-73.2,158.6-159.7,159.8c-6.2,12.7-11.7,25.9-16.4,39.5c60.3,62,60.4,163.7,0,225.7
		c4.7,13.7,10.3,27,16.6,40C295.5,658.5,377.7,738.5,374.8,832.7z"/>
</g>
<g>
	<path class="st0" d="M512.7,694.7c-166,0-243-214.6-115.5-320.5c126.8-105.2,322,8.3,293.9,170.5
		C676.2,630.2,599.6,694.7,512.7,694.7z M512.7,417.5c-123.9,0-123.8,192.2,0,192.2S636.6,417.5,512.7,417.5z"/>
</g>
</svg>
